<?xml version="1.0" standalone="no"?>
<!DOCTYPE svg PUBLIC "-//W3C//DTD SVG 20010904//EN"
 "http://www.w3.org/TR/2001/REC-SVG-20010904/DTD/svg10.dtd">
<svg version="1.0" xmlns="http://www.w3.org/2000/svg"
 width="512.000000pt" height="512.000000pt" viewBox="0 0 512.000000 512.000000"
 preserveAspectRatio="xMidYMid meet">
<metadata>
Created by potrace 1.14, written by Peter Selinger 2001-2017
</metadata>
<g transform="translate(0.000000,512.000000) scale(0.100000,-0.100000)"
fill="#000000" stroke="none">
<path d="M0 4349 c0 -730 1 -771 18 -764 30 12 87 16 101 7 11 -8 11 -14 0
-38 -13 -27 -31 -37 -91 -49 -26 -5 -28 -9 -28 -50 0 -44 1 -45 33 -47 17 0
39 -1 47 -2 9 -1 16 -13 18 -28 3 -28 -21 -49 -63 -53 -11 -1 -23 -3 -27 -4
-11 -2 -10 -105 1 -133 5 -13 19 -33 30 -45 28 -29 27 -38 -9 -63 -29 -21 -30
-23 -30 -111 0 -53 4 -89 10 -89 13 0 50 -37 50 -50 0 -5 -7 -10 -15 -10 -8 0
-15 -9 -15 -20 0 -11 -7 -23 -15 -26 -13 -5 -15 -35 -15 -179 0 -172 0 -174
22 -178 l23 -4 -22 -8 c-23 -7 -23 -9 -23 -190 0 -165 2 -183 18 -189 30 -10
98 -50 115 -67 12 -13 13 -19 4 -29 -9 -10 -9 -11 0 -6 6 3 14 2 17 -3 3 -5
-1 -12 -10 -15 -23 -9 -24 -8 -24 19 0 20 -12 33 -55 60 -30 19 -57 35 -60 35
-3 0 -5 -27 -5 -60 0 -49 3 -58 15 -54 9 4 15 0 15 -9 0 -9 14 -17 35 -21 26
-5 35 -12 35 -26 0 -24 -15 -25 -54 -5 -15 8 -32 15 -37 15 -5 0 -9 -274 -9
-629 0 -544 2 -630 15 -641 8 -7 15 -17 15 -22 0 -6 -7 -5 -15 2 -13 11 -15 7
-15 -29 0 -23 5 -52 11 -64 9 -16 9 -22 0 -25 -8 -3 -11 -69 -11 -228 l0 -224
2560 0 2560 0 0 484 c0 450 -3 533 -19 508 -3 -5 -35 -13 -71 -17 -62 -7 -64
-7 -50 11 9 10 10 15 3 10 -7 -4 -13 -4 -13 -1 0 12 71 35 110 35 l40 0 0 319
0 319 -37 -13 c-21 -7 -39 -18 -41 -24 -2 -6 -14 -11 -27 -11 -19 0 -22 4 -17
22 8 30 39 55 84 68 l38 11 0 252 c-1 202 -3 256 -15 271 -12 16 -12 22 0 47
13 23 15 109 15 522 0 272 -3 515 -6 541 -6 41 -10 47 -27 42 -25 -6 -56 9
-82 42 -11 13 -28 33 -38 45 -25 30 -9 39 77 45 l76 5 0 63 c0 59 -2 64 -22
65 -13 1 -36 2 -52 3 -30 2 -59 31 -54 54 3 14 48 35 100 46 22 5 28 12 28 32
0 20 -4 25 -16 20 -9 -3 -26 -6 -39 -6 -13 0 -30 -7 -38 -15 -12 -11 -16 -12
-20 -2 -6 19 -116 16 -128 -4 -5 -9 -21 -20 -36 -24 -16 -3 -44 -19 -63 -33
-26 -20 -45 -26 -77 -25 -30 1 -46 -4 -59 -18 -28 -31 -71 -16 -45 15 7 9 8
22 2 37 -6 17 -4 33 6 53 22 43 20 97 -5 139 -25 43 -54 48 -70 12 -6 -13 -45
-49 -85 -79 -41 -30 -77 -61 -80 -69 -6 -16 6 -87 19 -108 15 -25 140 -136
160 -143 10 -3 29 -25 42 -49 16 -30 33 -47 57 -56 34 -12 50 -36 40 -63 -7
-18 -129 -84 -173 -93 -42 -9 -51 -40 -23 -86 35 -58 22 -110 -24 -93 -8 4
-29 27 -47 53 -24 36 -31 57 -32 98 -1 57 -30 103 -66 103 -10 0 -54 -22 -96
-50 -76 -50 -120 -61 -153 -41 -17 11 -4 55 30 102 34 47 41 210 10 244 -10
11 -28 38 -40 60 -23 39 -23 43 -11 122 11 71 11 86 -4 122 -21 53 -20 56 7
74 22 14 28 13 84 -13 32 -16 65 -35 72 -44 8 -9 22 -16 32 -16 11 0 19 -4 19
-10 0 -18 20 -10 43 17 35 44 100 107 122 119 18 10 14 15 -42 55 -65 47 -76
67 -63 124 6 28 4 37 -14 54 -18 17 -35 21 -93 21 -40 0 -83 -4 -98 -10 -24
-9 -26 -14 -22 -57 3 -27 8 -60 12 -75 6 -22 2 -29 -19 -44 -25 -16 -30 -16
-92 5 -62 20 -67 21 -122 5 -31 -9 -81 -29 -111 -46 -58 -32 -95 -37 -128 -19
-24 12 -74 15 -72 4 6 -40 -37 -61 -81 -38 -44 23 -95 19 -142 -11 -58 -37
-184 -62 -239 -47 -33 9 -50 8 -81 -3 -55 -19 -98 -52 -98 -74 0 -10 -6 -20
-12 -23 -25 -8 125 -50 176 -48 57 1 82 -10 73 -31 -3 -10 14 -24 57 -45 35
-17 89 -48 121 -68 76 -49 212 -179 236 -227 22 -43 39 -49 39 -14 0 32 16 42
72 48 35 4 48 2 52 -9 12 -30 5 -42 -31 -60 -36 -17 -38 -21 -35 -57 3 -32 -1
-43 -19 -57 -17 -13 -20 -22 -15 -44 6 -25 10 -27 42 -22 19 3 42 3 50 0 16
-6 19 -46 4 -74 -8 -15 -5 -29 14 -64 25 -44 25 -45 5 -45 -12 0 -33 -9 -49
-20 -15 -11 -39 -24 -54 -30 -26 -9 -26 -9 -26 33 l-1 42 -14 -34 c-29 -65
-86 -130 -178 -199 -116 -88 -230 -149 -382 -206 -206 -76 -252 -102 -240
-133 2 -7 -1 -13 -7 -13 -7 0 -7 -4 0 -13 8 -9 8 -33 2 -79 -5 -37 -12 -96
-16 -133 -3 -37 -7 -76 -9 -86 -2 -11 2 -22 9 -25 9 -3 14 -25 15 -60 0 -30 5
-64 11 -74 12 -22 0 -33 -26 -23 -12 4 -15 3 -10 -5 4 -7 1 -26 -8 -42 -8 -16
-17 -43 -21 -59 -3 -16 -13 -35 -21 -42 -8 -6 -14 -17 -14 -24 0 -7 -7 -18
-15 -25 -8 -7 -12 -16 -9 -21 3 -5 1 -9 -5 -9 -6 0 -17 -12 -25 -28 -8 -15
-15 -23 -16 -17 0 5 -9 -8 -21 -30 -27 -53 -48 -69 -144 -114 -90 -43 -122
-50 -252 -53 -51 -2 -93 -5 -93 -9 0 -3 10 -10 22 -16 l22 -10 -22 -5 c-14 -4
-20 -2 -16 4 4 6 -1 8 -15 3 -13 -4 -21 -2 -21 5 0 6 -5 8 -11 4 -6 -3 -14 -2
-18 3 -3 5 -37 26 -76 48 -38 21 -83 47 -100 59 -27 18 -29 18 -15 1 14 -17
13 -18 -5 -11 -11 5 -28 11 -37 13 -10 3 -18 14 -18 25 0 12 -35 58 -82 107
-163 172 -258 364 -322 652 -20 94 -56 314 -56 349 0 5 -7 16 -16 24 -8 9 -11
16 -5 16 6 0 11 6 11 14 0 9 -7 12 -20 9 -15 -4 -20 0 -20 16 0 13 -5 19 -13
15 -7 -2 -22 5 -32 16 -33 37 14 80 49 45 15 -15 17 -15 22 0 4 8 2 89 -3 178
-11 189 0 268 49 357 68 122 206 246 349 313 46 21 71 39 73 52 3 11 12 56 22
100 9 44 18 116 20 160 2 44 6 99 10 122 6 41 -16 135 -37 158 -5 5 -9 38 -9
74 0 56 6 77 41 150 54 111 60 156 25 198 -21 25 -26 41 -26 84 0 30 4 59 8
65 7 11 176 84 195 84 7 0 32 9 56 20 l44 20 -22 21 c-14 14 -20 27 -16 40 6
19 -13 19 -1059 19 l-1066 0 0 -771z m380 606 c0 -8 -4 -15 -10 -15 -5 0 -10
7 -10 15 0 8 5 15 10 15 6 0 10 -7 10 -15z m1334 -241 c32 -12 9 -84 -28 -84
-34 0 -47 48 -20 74 17 18 24 19 48 10z m-1091 -231 c3 -27 4 -61 2 -78 -2
-16 -4 -36 -4 -42 -1 -7 -9 -13 -20 -13 -47 0 -66 88 -31 144 30 50 46 46 53
-11z m483 -235 c9 -14 -31 -48 -57 -48 -29 0 -34 22 -9 42 25 21 55 24 66 6z
m-694 -54 c9 -19 8 -28 -7 -44 -21 -23 -40 -26 -51 -8 -8 13 -7 76 2 90 8 13
44 -11 56 -38z m-246 0 c12 -17 14 -28 6 -36 -14 -14 -50 -1 -57 22 -14 44 25
55 51 14z m695 -114 l24 -19 -38 -1 c-41 0 -77 14 -77 30 0 18 67 11 91 -10z
m219 -49 c0 -23 -14 -41 -31 -41 -21 0 -25 20 -7 38 14 14 38 16 38 3z m-622
-33 c7 -7 12 -33 12 -59 0 -39 -4 -49 -20 -54 -27 -8 -37 0 -45 34 -4 19 0 41
10 60 17 34 25 37 43 19z m3425 -59 c8 -11 21 -20 28 -19 27 4 39 0 59 -20 27
-27 25 -62 -5 -90 -22 -20 -36 -23 -121 -25 -84 -2 -98 0 -114 17 -26 28 -29
50 -14 86 26 64 135 97 167 51z m-428 -76 c53 -4 64 -9 93 -40 17 -20 32 -39
32 -43 0 -21 -53 -40 -112 -40 -35 0 -80 -5 -101 -11 -31 -8 -43 -7 -63 5 -27
18 -39 54 -29 86 10 31 64 62 95 54 14 -3 52 -8 85 -11z m-2660 -27 c0 -25
-16 -30 -39 -13 -24 17 -12 39 17 35 14 -2 22 -10 22 -22z m303 -14 c3 -9 -2
-13 -14 -10 -9 1 -19 9 -22 16 -3 9 2 13 14 10 9 -1 19 -9 22 -16z m2773 -78
c11 -3 16 -18 18 -54 l1 -51 -46 -19 c-67 -29 -138 -27 -170 5 -19 19 -24 34
-22 58 3 28 9 34 58 55 52 21 102 23 161 6z m-3482 -19 c31 -16 47 -43 33 -57
-28 -28 -132 -7 -132 27 0 16 37 45 58 45 7 0 26 -7 41 -15z m411 -42 c0 -9
-29 -33 -39 -33 -15 0 -14 37 2 43 13 4 37 -2 37 -10z m-460 -173 c11 -11 20
-31 20 -44 0 -20 -4 -23 -22 -19 -36 9 -48 23 -48 54 0 35 21 38 50 9z m300
-110 c0 -5 -7 -10 -16 -10 -8 0 -12 5 -9 10 3 6 10 10 16 10 5 0 9 -4 9 -10z
m3298 -56 c55 -38 7 -94 -83 -94 -39 0 -47 4 -57 26 -8 18 -9 30 -1 42 25 41
101 55 141 26z m-3248 -10 c0 -8 -5 -12 -10 -9 -6 4 -8 11 -5 16 9 14 15 11
15 -7z m-65 -64 c3 -6 -1 -17 -9 -26 -9 -8 -16 -20 -16 -25 0 -14 -17 -11 -23
5 -15 37 28 78 48 46z m-511 -32 c24 -38 -47 -65 -90 -34 -22 17 -15 26 29 43
38 14 47 12 61 -9z m4060 -24 c21 -20 20 -58 0 -90 -12 -18 -14 -31 -7 -47 15
-35 5 -53 -38 -73 -31 -13 -45 -15 -57 -7 -22 14 -19 59 5 85 11 13 19 38 20
71 2 69 40 99 77 61z m750 -30 c9 -8 20 -13 24 -10 5 3 20 -1 33 -8 15 -7 33
-10 44 -5 11 4 24 8 28 8 15 2 37 -69 31 -97 -14 -59 -49 -70 -67 -22 -16 42
-31 32 -35 -22 -5 -81 -65 -103 -93 -35 -17 40 -17 130 0 151 7 8 10 20 6 26
-3 5 0 10 7 11 7 0 4 4 -7 9 -16 7 -17 9 -3 9 9 1 24 -6 32 -15z m-4775 -80
c-14 -18 -62 -44 -80 -44 -15 0 32 37 63 49 32 13 32 13 17 -5z m289 -46 c-3
-7 -13 -15 -24 -17 -16 -3 -17 -1 -5 13 16 19 34 21 29 4z m-158 -88 c-17 -22
-38 -40 -46 -40 -21 0 -18 6 29 52 50 52 61 44 17 -12z m3685 24 c14 -6 45
-53 45 -69 0 -15 -30 -2 -35 16 -4 11 -18 24 -31 29 -13 5 -24 14 -24 20 0 11
20 13 45 4z m-3240 -34 c4 -6 -5 -10 -20 -10 -15 0 -24 4 -20 10 3 6 12 10 20
10 8 0 17 -4 20 -10z m265 0 c13 -8 13 -10 -2 -10 -9 0 -20 5 -23 10 -8 13 5
13 25 0z m45 -10 c3 -5 -1 -10 -10 -10 -9 0 -13 5 -10 10 3 6 8 10 10 10 2 0
7 -4 10 -10z m3406 0 c38 -21 23 -47 -45 -79 -35 -17 -73 -31 -84 -31 -12 0
-24 -4 -27 -10 -3 -5 -14 -10 -23 -10 -12 0 -8 8 16 28 18 15 32 32 32 39 0 6
12 25 26 42 27 33 67 41 105 21z m-3561 -70 c0 -27 -22 -59 -48 -68 -26 -9
-31 -8 -35 9 -3 10 -10 19 -15 19 -6 0 -8 -9 -5 -20 4 -16 -2 -23 -31 -35 -52
-22 -66 -19 -66 11 0 36 71 107 102 102 19 -2 22 -8 20 -30 -2 -16 1 -28 7
-28 6 0 11 10 11 23 0 32 18 49 42 36 10 -5 18 -14 18 -19z m3014 14 c18 -7
12 -24 -10 -24 -8 0 -14 7 -14 15 0 17 2 18 24 9z m-2964 -39 c0 6 4 3 9 -5
13 -19 4 -30 -25 -30 -24 0 -30 13 -18 44 6 15 8 15 20 -1 7 -10 14 -13 14 -8z
m-650 5 c0 -5 -5 -10 -11 -10 -5 0 -7 5 -4 10 3 6 8 10 11 10 2 0 4 -4 4 -10z
m94 -41 c15 -13 2 -20 -42 -22 -46 -1 -57 5 -48 28 4 12 14 14 43 9 21 -3 42
-10 47 -15z m4124 15 c12 -4 22 -9 22 -13 0 -11 -63 -39 -104 -46 -45 -9 -47
4 -5 39 31 27 47 30 87 20z m192 -12 c50 -24 45 -45 -15 -59 -42 -11 -53 -10
-72 2 -28 19 -31 61 -5 68 35 9 58 7 92 -11z m-630 -11 c-13 -11 -28 -17 -33
-14 -13 8 14 33 37 33 20 0 20 -1 -4 -19z m-178 -19 c-27 -4 -37 2 -27 17 4 8
13 7 28 -1 l22 -13 -23 -3z m-3222 -2 c0 -21 -12 -24 -45 -11 -19 8 -19 8 0
19 30 17 45 14 45 -8z m3668 -40 c17 -11 32 -24 32 -29 0 -12 -51 -61 -65 -62
-48 -5 -105 22 -105 49 0 9 10 26 22 39 27 29 71 30 116 3z m-3445 -18 c-2
-13 1 -21 7 -17 6 3 10 12 10 20 0 20 19 29 34 16 7 -6 16 -8 19 -4 9 9 8 -39
-1 -53 -14 -21 -47 -32 -89 -29 -24 1 -43 -2 -43 -7 0 -11 -66 -1 -97 14 -31
15 -29 33 5 46 121 46 158 49 155 14z m-303 -27 c0 -16 -42 -30 -65 -21 -22 8
-18 28 4 21 11 -3 22 -1 26 5 9 15 35 12 35 -5z m611 -34 c7 -16 17 -27 21
-25 4 3 8 0 8 -5 0 -6 -12 -11 -28 -11 -34 0 -59 34 -41 56 17 21 26 17 40
-15z m2889 19 c0 -5 -5 -10 -11 -10 -5 0 -7 5 -4 10 3 6 8 10 11 10 2 0 4 -4
4 -10z m654 0 c35 -13 33 -23 -13 -59 -48 -38 -95 -50 -104 -27 -9 23 13 65
42 81 31 17 42 18 75 5z m-714 -10 c11 -7 6 -8 -17 -4 -21 4 -39 2 -50 -7 -16
-13 -17 -12 -4 4 15 19 48 22 71 7z m125 -40 c-28 -13 -43 -16 -52 -8 -20 16
-9 23 44 25 l48 2 -40 -19z m435 11 c0 -24 -66 -73 -125 -93 -36 -11 -65 -25
-65 -30 0 -5 -4 -6 -10 -3 -5 3 -10 3 -10 0 0 -3 14 -11 31 -17 27 -9 29 -12
15 -20 -12 -7 -25 -5 -41 6 -29 19 -51 20 -61 4 -5 -7 -2 -9 8 -6 8 3 19 -2
25 -11 6 -9 29 -23 52 -31 50 -16 62 -30 27 -30 -14 0 -27 4 -31 10 -3 5 -12
7 -19 4 -7 -3 -16 2 -19 10 -5 13 -11 14 -31 4 -19 -8 -29 -8 -40 1 -45 37 81
160 165 161 14 0 36 11 49 25 22 24 80 36 80 16z m-4519 -23 c1 -7 1 -19 0
-25 -1 -7 7 -13 19 -13 23 0 26 -10 8 -28 -9 -9 -8 -12 7 -12 10 0 15 -3 12
-6 -4 -4 -20 -1 -38 6 -26 11 -30 17 -25 40 2 15 0 32 -7 39 -8 8 -7 11 6 11
9 0 18 -6 18 -12z m702 -5 c-7 -2 -19 -2 -25 0 -7 3 -2 5 12 5 14 0 19 -2 13
-5z m60 -10 c-7 -2 -19 -2 -25 0 -7 3 -2 5 12 5 14 0 19 -2 13 -5z m4067 -23
c0 -21 -44 -49 -57 -37 -3 4 -1 18 5 32 14 31 52 35 52 5z m-3850 -20 c12 -8
12 -14 -4 -47 -17 -36 -19 -37 -32 -18 -15 20 -19 57 -7 68 9 10 25 8 43 -3z
m128 -47 c6 -24 6 -43 1 -43 -5 0 -11 12 -14 28 -4 15 -10 34 -15 43 -10 18
-1 34 11 22 4 -5 12 -27 17 -50z m-503 7 c6 -4 31 -13 57 -20 55 -14 54 -34 0
-24 -34 6 -122 49 -122 60 0 6 52 -7 65 -16z m3935 15 c0 -2 -14 -12 -31 -21
-20 -10 -28 -19 -21 -23 15 -9 11 -91 -5 -91 -6 0 -13 -4 -15 -9 -1 -5 -17 -6
-35 -4 -29 5 -31 7 -17 20 8 9 13 20 11 27 -3 10 -11 12 -59 15 -10 1 -18 6
-18 12 0 8 12 10 34 6 31 -5 38 -2 60 28 23 30 40 39 84 44 6 0 12 -1 12 -4z
m-3360 -25 c0 -11 4 -20 9 -20 10 0 25 -69 17 -77 -3 -3 -9 3 -13 13 -3 10
-11 22 -16 26 -14 9 -20 78 -7 78 5 0 10 -9 10 -20z m-1205 0 c3 -5 1 -10 -4
-10 -6 0 -11 5 -11 10 0 6 2 10 4 10 3 0 8 -4 11 -10z m3255 -39 c25 -8 79
-13 122 -12 69 2 84 -1 129 -26 28 -15 57 -37 65 -48 22 -35 35 -183 32 -362
-2 -95 -7 -175 -11 -179 -4 -4 -7 -14 -7 -23 0 -33 -43 -99 -83 -128 -55 -39
-115 -58 -262 -83 -66 -11 -153 -30 -193 -41 -62 -17 -79 -19 -103 -9 -33 14
-35 20 -13 61 8 16 12 38 9 48 -8 28 13 109 34 133 55 58 111 55 111 -7 0 -46
14 -49 199 -43 230 7 265 35 259 203 -4 79 -8 99 -41 166 -69 143 -217 240
-272 179 -10 -11 -21 -17 -25 -15 -10 6 -20 -20 -20 -50 0 -13 -5 -27 -11 -30
-6 -4 -8 -13 -5 -21 7 -19 0 -18 -61 8 -56 25 -73 51 -73 112 0 45 42 129 76
151 36 25 87 44 94 36 3 -4 25 -13 50 -20z m-2980 -15 c-12 -12 -40 0 -40 18
0 11 5 12 24 3 15 -7 21 -16 16 -21z m784 18 c9 -24 7 -44 -5 -44 -6 0 -8 7
-5 16 4 9 1 23 -5 30 -7 9 -8 14 -1 14 5 0 13 -7 16 -16z m-34 -14 c0 -11 -4
-20 -10 -20 -5 0 -10 9 -10 20 0 11 5 20 10 20 6 0 10 -9 10 -20z m3570 -5 c0
-14 -4 -25 -10 -25 -5 0 -10 11 -10 25 0 14 5 25 10 25 6 0 10 -11 10 -25z
m-4498 3 c-9 -9 -15 -9 -24 0 -9 9 -7 12 12 12 19 0 21 -3 12 -12z m1073 -19
c6 -17 9 -19 16 -8 6 10 9 10 9 2 0 -7 -9 -17 -20 -23 -16 -9 -18 -8 -14 5 4
8 1 15 -5 15 -6 0 -11 7 -11 15 0 22 18 18 25 -6z m-879 -17 c-10 -2 -22 0
-28 6 -6 6 0 7 19 4 21 -5 23 -7 9 -10z m262 -2 c3 -8 1 -12 -3 -8 -4 4 -16 3
-27 -3 -11 -6 -27 -8 -36 -4 -15 6 -15 8 3 21 24 18 57 15 63 -6z m545 -13 c7
-19 -4 -67 -15 -67 -5 0 -6 -4 -3 -10 8 -12 -5 -13 -24 -1 -8 5 -11 16 -8 25
4 10 1 16 -8 16 -24 0 -17 17 10 24 14 4 25 11 25 16 0 15 17 12 23 -3z m-786
-23 c-3 -3 -12 -4 -19 -1 -8 3 -5 6 6 6 11 1 17 -2 13 -5z m-42 -35 c4 -11 2
-26 -4 -33 -12 -15 -4 -49 9 -41 5 3 11 1 15 -5 3 -5 -3 -10 -14 -10 -12 0
-21 5 -21 11 0 5 -4 7 -10 4 -5 -3 -10 3 -10 14 0 12 5 21 11 21 7 0 8 7 4 18
-4 9 -8 25 -10 34 -5 24 22 12 30 -13z m925 21 c0 -5 -5 -10 -11 -10 -5 0 -7
5 -4 10 3 6 8 10 11 10 2 0 4 -4 4 -10z m3748 -2 c21 -21 13 -36 -25 -48 -21
-6 -55 -20 -75 -31 -24 -13 -39 -16 -43 -9 -11 18 25 61 68 81 50 22 59 23 75
7z m-4758 -50 c7 -29 18 -56 24 -60 7 -5 4 -13 -9 -23 -19 -15 -19 -15 8 -9
17 4 27 2 27 -5 0 -34 -93 9 -111 52 -10 24 -9 30 12 48 13 11 25 25 25 30 5
33 11 24 24 -33z m126 15 c-4 -4 -11 -1 -16 7 -16 25 -11 35 7 17 9 -9 13 -20
9 -24z m514 28 c0 -15 -39 -20 -75 -10 -19 6 -35 12 -35 14 0 3 25 5 55 5 30
0 55 -4 55 -9z m324 -17 c3 -8 -1 -14 -8 -14 -8 0 -16 9 -19 19 -6 23 18 18
27 -5z m-621 -48 c9 -10 17 -23 17 -28 0 -5 4 -7 8 -4 4 2 9 -8 10 -24 2 -25
-1 -27 -20 -22 -25 6 -50 27 -42 35 3 2 -15 8 -40 11 -55 9 -64 19 -34 41 29
20 78 16 101 -9z m-233 4 c0 -5 -4 -10 -10 -10 -5 0 -10 5 -10 10 0 6 5 10 10
10 6 0 10 -4 10 -10z m4406 -18 c6 -4 14 -19 17 -33 10 -39 -50 -99 -98 -99
-33 0 -35 2 -35 34 0 27 5 36 23 42 30 11 33 11 67 13 17 0 30 6 30 11 0 6
-10 8 -22 5 -57 -13 -100 -12 -114 3 -13 12 -13 16 -2 23 16 11 119 11 134 1z
m-3810 -33 c25 -23 22 -59 -6 -59 -26 0 -53 35 -45 59 8 27 23 27 51 0z m3875
1 c22 -12 26 -40 4 -40 -8 0 -19 9 -25 19 -17 33 -12 38 21 21z m-4328 -27
c-7 -2 -19 -2 -25 0 -7 3 -2 5 12 5 14 0 19 -2 13 -5z m483 -39 c-4 -9 -9 -15
-11 -12 -3 3 -3 13 1 22 4 9 9 15 11 12 3 -3 3 -13 -1 -22z m-527 1 c7 3 28
-3 47 -14 44 -26 44 -26 44 2 1 21 1 22 15 3 8 -11 15 -16 15 -10 0 5 4 2 9
-5 11 -17 -5 -55 -19 -46 -5 3 -11 1 -15 -5 -18 -29 -104 4 -124 47 -12 26 -4
54 9 33 4 -7 13 -9 19 -5z m4086 6 c17 -7 14 -9 -15 -13 -44 -7 -73 2 -44 13
24 10 34 10 59 0z m415 -14 c0 -8 -8 -21 -17 -29 -19 -17 -122 -42 -132 -33
-7 8 20 25 41 25 9 0 28 11 42 25 27 27 66 34 66 12z m-4083 -33 c0 -8 -3 -12
-5 -9 -3 3 -10 -3 -17 -11 -9 -13 -16 -14 -33 -5 -19 10 -21 9 -15 -5 4 -12 3
-15 -5 -10 -20 12 -13 41 15 58 29 17 60 8 60 -18z m3572 15 c-22 -14 -33 -10
-19 6 7 8 17 12 22 9 6 -4 5 -10 -3 -15z m141 -24 c-9 -11 -15 -12 -25 -2 -11
10 -9 14 9 24 24 13 34 0 16 -22z m50 25 c0 -5 -5 -10 -11 -10 -5 0 -7 5 -4
10 3 6 8 10 11 10 2 0 4 -4 4 -10z m-4502 -20 c-14 -4 -41 -4 -60 0 -28 7 -24
8 27 8 46 0 54 -2 33 -8z m4347 0 c4 -6 -5 -10 -19 -10 -14 0 -26 5 -26 10 0
6 9 10 19 10 11 0 23 -4 26 -10z m-3865 -10 c0 -5 -5 -10 -11 -10 -5 0 -7 5
-4 10 3 6 8 10 11 10 2 0 4 -4 4 -10z m440 -87 c50 -10 53 -12 40 -28 -20 -24
-110 3 -110 33 0 10 6 12 23 7 12 -3 33 -9 47 -12z m3660 -13 c0 -5 -4 -10
-10 -10 -5 0 -10 5 -10 10 0 6 5 10 10 10 6 0 10 -4 10 -10z m-4358 -33 c3
-27 -1 -36 -18 -44 -19 -9 -24 -6 -35 14 -12 23 -11 27 10 44 32 26 38 24 43
-14z m112 -11 c-3 -9 -15 -16 -26 -16 -17 0 -18 3 -8 15 7 8 16 12 21 9 5 -3
9 0 9 7 0 7 2 10 5 7 3 -3 3 -13 -1 -22z m3890 -93 c4 -5 12 -9 17 -9 5 -1 14
-2 19 -3 6 0 10 -5 10 -11 0 -5 -7 -7 -15 -4 -8 4 -17 -1 -21 -10 -3 -9 -11
-13 -18 -9 -13 9 -77 12 -90 5 -15 -8 -76 -9 -82 -1 -2 4 6 17 18 28 17 17 35
21 88 21 37 0 70 -3 74 -7z m-3644 -23 c0 -5 -5 -10 -11 -10 -5 0 -7 5 -4 10
3 6 8 10 11 10 2 0 4 -4 4 -10z m-36 -28 c2 -4 1 -14 -3 -21 -6 -9 -10 -7 -14
8 -5 20 7 29 17 13z m46 -16 c0 -2 -7 -6 -15 -10 -8 -3 -15 -1 -15 4 0 6 7 10
15 10 8 0 15 -2 15 -4z m530 -65 c-5 -11 -15 -23 -22 -27 -7 -5 -8 -2 -3 7 21
37 44 55 25 20z m-975 -29 c4 -10 -4 -25 -22 -42 -32 -28 -63 -37 -63 -18 0 7
-3 23 -6 36 -5 18 -3 21 10 16 10 -4 18 0 22 10 3 9 10 13 15 10 5 -3 9 -1 9
5 0 15 27 2 35 -17z m280 -22 c-3 -5 -17 -10 -31 -10 -14 0 -22 4 -19 10 3 6
17 10 31 10 14 0 22 -4 19 -10z m340 -30 c8 -13 -25 -13 -45 0 -12 8 -9 10 12
10 15 0 30 -4 33 -10z m-745 -45 c14 -19 14 -19 -2 -6 -10 7 -18 18 -18 24 0
6 1 8 3 6 1 -2 9 -13 17 -24z m3726 -12 c-3 -17 -26 -32 -26 -16 0 8 20 33 26
33 1 0 1 -8 0 -17z m-2731 -13 c-4 -6 -2 -16 4 -23 5 -7 6 -19 2 -26 -5 -7 -6
-22 -4 -32 7 -26 -13 -24 -46 3 l-27 23 26 22 c21 19 22 22 7 23 -28 0 -9 20
19 20 15 0 23 -4 19 -10z m257 -12 c-7 -7 -12 -8 -12 -2 0 6 3 14 7 17 3 4 9
5 12 2 2 -3 -1 -11 -7 -17z m-842 7 c0 -11 -51 -24 -67 -17 -14 5 -12 8 12 13
41 9 55 10 55 4z m40 -25 c0 -11 -7 -20 -15 -20 -13 0 -14 4 -5 20 6 11 13 20
15 20 3 0 5 -9 5 -20z m-134 -25 c20 -14 45 -25 55 -25 16 0 19 -8 19 -50 0
-61 20 -103 59 -126 l29 -17 -25 -34 c-19 -24 -24 -41 -21 -65 l5 -32 -26 31
c-67 80 -95 128 -152 260 -18 43 -20 55 -9 68 17 20 23 19 66 -10z m1528 -14
c10 -10 14 -21 9 -24 -4 -3 -16 6 -26 19 -21 28 -8 32 17 5z m2406 -54 c0 -12
-9 -37 -20 -54 -23 -38 -41 -41 -119 -17 -77 23 -61 43 64 81 68 21 75 20 75
-10z m-3825 13 c-3 -5 -2 -10 4 -10 5 0 11 6 14 13 2 6 4 0 4 -15 0 -16 -3
-28 -8 -28 -5 0 -9 -7 -9 -16 0 -8 -5 -12 -11 -8 -8 4 -8 9 0 17 16 16 13 27
-4 21 -10 -4 -15 0 -15 15 0 12 6 21 16 21 8 0 12 -4 9 -10z m1142 -34 c-13
-26 -34 -28 -48 -4 -13 24 16 51 41 38 15 -8 16 -14 7 -34z m-1506 -27 c9 -17
7 -25 -12 -45 -12 -13 -25 -24 -29 -24 -10 0 -10 51 0 71 14 25 27 24 41 -2z
m3953 -7 c3 -4 -15 -19 -39 -32 -34 -19 -47 -22 -56 -13 -17 17 4 41 39 46 48
7 51 7 56 -1z m913 -57 c-15 -16 -22 -11 -13 10 3 9 10 13 16 10 6 -4 5 -11
-3 -20z m-3707 -30 c8 -9 9 -15 2 -15 -6 0 -14 5 -18 11 -5 8 -9 8 -14 -1 -5
-7 -13 -9 -21 -5 -9 6 -8 10 7 16 28 11 30 11 44 -6z m-430 -5 c0 -5 -2 -10
-4 -10 -3 0 -8 5 -11 10 -3 6 -1 10 4 10 6 0 11 -4 11 -10z m1075 -113 c16
-28 31 -55 33 -59 2 -4 -9 -10 -25 -14 -15 -3 -35 -8 -44 -10 -13 -4 -18 7
-23 52 -6 52 3 84 23 84 3 0 19 -24 36 -53z m-1361 0 c-3 -9 -10 -17 -15 -17
-11 0 -12 34 -2 44 11 11 24 -9 17 -27z m-319 -47 c0 -8 -6 -14 -14 -12 -12 3
-12 1 0 -14 8 -10 9 -15 3 -11 -7 4 -15 -1 -19 -11 -6 -15 -8 -15 -26 6 -15
19 -16 28 -8 44 12 23 64 22 64 -2z m3794 1 l74 -6 -38 -45 c-56 -67 -148
-145 -255 -215 -129 -86 -168 -104 -181 -85 -5 8 -7 24 -4 35 2 11 5 30 5 42
0 18 9 23 58 33 64 14 127 43 134 62 8 21 -8 53 -41 80 -35 30 -35 29 52 84
42 27 59 32 87 27 19 -3 68 -9 109 -12z m-3469 -1 c0 -5 -5 -10 -11 -10 -5 0
-7 5 -4 10 3 6 8 10 11 10 2 0 4 -4 4 -10z m140 -21 c0 -6 -4 -7 -10 -4 -5 3
-10 11 -10 16 0 6 5 7 10 4 6 -3 10 -11 10 -16z m-20 -8 c7 -14 7 -22 -1 -26
-13 -9 -19 -3 -24 24 -5 26 11 28 25 2z m37 -95 c28 -3 72 -2 97 4 39 8 56 7
106 -10 65 -22 126 -25 180 -10 30 8 39 6 72 -15 21 -14 57 -30 82 -37 41 -11
44 -14 49 -51 10 -74 56 -98 212 -112 88 -8 123 4 131 45 6 26 11 30 38 30 18
0 37 5 43 11 7 7 28 9 55 5 38 -6 49 -14 80 -55 47 -62 93 -84 194 -89 77 -4
82 -6 98 -33 21 -35 54 -58 92 -64 16 -3 44 -8 62 -11 25 -4 49 3 95 26 34 18
71 40 81 50 28 27 24 104 -7 130 -17 14 -15 17 28 54 l46 38 23 -21 c12 -12
48 -27 79 -33 31 -7 54 -15 52 -19 -3 -4 28 0 68 8 39 8 90 14 112 13 177 -8
230 -4 293 22 l62 26 0 -43 c0 -27 8 -54 23 -76 26 -39 90 -79 129 -79 15 0
39 -5 55 -11 28 -12 28 -12 -42 -44 -195 -91 -527 -169 -835 -196 -172 -15
-486 -6 -680 20 -313 41 -687 158 -915 285 -189 106 -395 268 -395 310 0 15 9
10 43 -21 34 -32 54 -41 94 -47z m-307 13 c0 -8 5 -7 16 2 13 10 17 10 24 -1
10 -15 -6 -34 -37 -44 -25 -8 -34 3 -26 32 6 23 23 31 23 11z m232 -242 c13
-20 3 -32 -23 -29 -30 4 -54 26 -44 42 8 14 56 4 67 -13z m-508 -56 c-8 -9
-22 12 -17 26 6 15 7 14 13 -3 4 -10 6 -21 4 -23z m81 29 c3 -6 -1 -7 -9 -4
-18 7 -21 14 -7 14 6 0 13 -4 16 -10z m4790 -30 c17 -4 23 -8 15 -10 -8 -1
-33 -4 -55 -6 -22 -3 -56 -9 -75 -14 -19 -6 -46 -10 -60 -10 l-24 0 21 15 c41
29 120 40 178 25z m-4680 -180 c3 -5 1 -10 -4 -10 -6 0 -11 5 -11 10 0 6 2 10
4 10 3 0 8 -4 11 -10z m925 -150 c0 -5 -5 -10 -11 -10 -5 0 -7 5 -4 10 3 6 8
10 11 10 2 0 4 -4 4 -10z m-750 -66 c0 -20 -18 -54 -30 -54 -11 0 -9 41 3 58
13 17 27 15 27 -4z m900 -74 c0 -5 -4 -10 -10 -10 -5 0 -10 5 -10 10 0 6 5 10
10 10 6 0 10 -4 10 -10z"/>
<path d="M4320 2470 c0 -5 5 -10 11 -10 5 0 7 5 4 10 -3 6 -8 10 -11 10 -2 0
-4 -4 -4 -10z"/>
<path d="M2855 861 c-22 -10 -55 -33 -73 -50 -26 -27 -32 -40 -32 -75 0 -77
58 -102 219 -93 126 7 174 21 207 60 42 49 30 88 -31 103 -17 4 -43 17 -60 29
-65 48 -159 58 -230 26z"/>
<path d="M5098 5113 c7 -3 16 -2 19 1 4 3 -2 6 -13 5 -11 0 -14 -3 -6 -6z"/>
<path d="M3060 4315 c0 -14 4 -25 8 -25 5 0 14 11 20 25 10 22 9 25 -8 25 -15
0 -20 -7 -20 -25z"/>
<path d="M3040 4245 c-7 -8 -28 -17 -49 -21 -51 -8 -141 -47 -141 -60 0 -6 7
-17 15 -24 8 -7 15 -20 15 -29 0 -22 19 -41 41 -41 10 0 31 -11 47 -25 17 -14
34 -25 40 -25 13 0 22 25 22 65 0 31 3 34 50 50 27 9 52 20 55 24 2 4 -9 21
-25 36 -17 16 -30 34 -30 41 0 18 -27 24 -40 9z"/>
<path d="M1607 3473 c-4 -3 -7 -18 -7 -31 0 -32 13 -20 15 13 1 28 1 28 -8 18z"/>
<path d="M1638 3457 c5 -20 -25 -47 -45 -40 -17 7 -17 -23 0 -34 20 -13 37
-51 31 -68 -3 -8 -1 -15 5 -15 6 0 11 -9 11 -19 0 -23 -46 -118 -70 -146 -10
-11 -28 -44 -41 -74 l-23 -54 56 -51 c125 -113 320 -211 518 -261 161 -41 400
-69 385 -45 -3 6 -1 10 4 10 6 0 11 -4 11 -10 0 -16 17 -12 24 6 4 10 2 14 -6
11 -7 -2 -21 0 -30 5 -12 5 -18 5 -18 -2 0 -5 -7 -10 -16 -10 -8 0 -13 4 -10
9 7 11 -56 24 -78 15 -9 -3 -16 -1 -16 5 0 6 6 11 13 12 6 0 1 4 -11 10 -13 5
-28 7 -33 3 -5 -3 -9 -1 -9 4 0 5 -14 9 -30 9 -17 0 -36 7 -43 16 -6 9 -19 17
-27 19 -8 2 -23 11 -33 20 -11 9 -25 14 -33 11 -8 -3 -14 0 -14 6 0 6 -11 16
-24 23 -14 6 -30 23 -36 38 -6 15 -24 41 -39 58 -40 43 -79 116 -77 143 1 13
-3 27 -9 31 -14 10 5 38 43 63 36 24 46 50 26 69 -8 8 -14 17 -14 20 0 16 -60
66 -78 66 -12 0 -23 8 -27 20 -3 11 -12 20 -18 20 -8 0 -8 3 1 9 9 6 -1 12
-32 20 -26 6 -50 19 -56 30 -5 11 -28 27 -50 37 -22 10 -40 21 -40 25 0 4 -11
6 -23 5 -18 -1 -23 -6 -19 -19z m227 -127 c3 -5 -1 -10 -10 -10 -9 0 -13 5
-10 10 3 6 8 10 10 10 2 0 7 -4 10 -10z"/>
<path d="M2984 3215 c-10 -8 -14 -14 -9 -14 6 0 19 6 29 14 11 8 15 15 10 15
-6 0 -19 -7 -30 -15z"/>
<path d="M2991 3192 c-14 -26 6 -34 48 -22 34 10 36 8 20 -22 -8 -15 -8 -19 0
-13 14 8 73 -4 67 -14 -3 -4 7 -8 22 -9 15 -1 29 -7 30 -12 6 -16 20 -12 32
10 9 16 8 19 -6 13 -12 -4 -15 -3 -10 5 5 8 0 12 -12 12 -10 0 -32 11 -48 25
-20 18 -30 21 -36 12 -5 -8 -8 -7 -8 5 0 12 -8 17 -27 16 -16 -1 -36 2 -45 6
-11 5 -20 1 -27 -12z"/>
<path d="M3645 3153 c-4 -19 -1 -32 14 -47 26 -26 34 -17 26 27 -9 44 -31 55
-40 20z"/>
<path d="M3206 3092 c-3 -6 3 -16 14 -22 21 -11 29 -60 9 -60 -8 0 -7 -5 1
-15 11 -13 10 -14 -5 -9 -12 5 -16 4 -12 -3 9 -14 -28 -46 -55 -48 -12 -1 -24
-7 -25 -12 -5 -13 -63 -7 -78 8 -7 7 -3 8 15 1 42 -15 54 -3 25 24 -30 27 -37
30 -29 10 6 -15 -22 -23 -92 -25 -30 -1 -41 2 -41 13 0 8 4 13 8 10 4 -2 9 1
11 8 2 6 18 11 36 11 18 0 31 1 30 2 -2 1 -14 8 -27 15 -16 8 -21 8 -16 1 5
-9 -16 -11 -79 -7 -85 5 -100 0 -72 -23 10 -8 16 -9 21 -1 3 5 22 10 42 10 34
0 35 -1 31 -34 -2 -19 0 -32 4 -30 4 3 8 0 8 -5 0 -6 -7 -11 -15 -11 -8 0 -15
-4 -15 -9 0 -24 -137 -42 -151 -19 -5 7 -7 -4 -5 -28 4 -35 0 -47 -25 -75 -20
-22 -32 -30 -35 -21 -8 17 -25 15 -18 -3 3 -8 14 -17 23 -20 20 -6 24 -32 5
-39 -7 -3 -18 -14 -24 -25 -10 -20 -9 -21 72 -16 46 2 110 9 143 14 33 6 61
11 63 11 1 0 2 7 2 15 0 8 5 15 11 15 5 0 7 -4 4 -10 -11 -17 28 -11 123 20
157 51 282 124 282 166 0 18 -4 21 -22 16 -21 -5 -22 -4 -9 11 11 14 11 17 0
17 -12 0 -12 2 -1 9 8 4 12 19 11 32 -2 13 1 30 5 38 6 9 5 12 -2 7 -6 -3 -14
-1 -18 5 -4 8 -9 7 -15 -2 -7 -11 -9 -10 -9 4 0 9 -11 23 -25 29 -24 11 -30
21 -25 43 1 6 -4 5 -11 -2 -10 -10 -15 -9 -24 4 -8 11 -14 12 -19 5z m-139
-198 c2 -6 -3 -11 -10 -11 -8 0 -14 6 -14 14 0 15 19 12 24 -3z m210 -30 c-3
-3 -2 -17 3 -29 8 -21 6 -24 -17 -22 -35 3 -43 44 -10 50 12 2 24 5 26 6 2 0
2 -2 -2 -5z m-438 -24 c4 0 8 -7 8 -15 0 -22 -25 -18 -38 7 -10 18 -9 20 6 15
9 -4 20 -7 24 -7z m255 -25 c3 3 2 0 -3 -6 -12 -14 -45 -3 -36 11 5 8 11 8 19
1 7 -6 16 -9 20 -6z m-311 -26 c4 -16 3 -18 -9 -8 -16 13 -19 29 -5 29 5 0 11
-9 14 -21z m117 -9 c0 -5 -6 -10 -14 -10 -8 0 -22 -3 -30 -6 -12 -5 -15 -2
-10 10 7 17 54 23 54 6z m98 -2 c-5 -15 -68 -24 -68 -10 0 15 13 22 43 22 18
0 27 -4 25 -12z m-98 -34 c0 -8 -5 -12 -10 -9 -6 4 -8 11 -5 16 9 14 15 11 15
-7z m-110 -4 c0 -5 -7 -10 -15 -10 -8 0 -15 5 -15 10 0 6 7 10 15 10 8 0 15
-4 15 -10z m105 -60 c3 -5 -3 -10 -14 -10 -11 0 -23 5 -26 10 -3 6 3 10 14 10
11 0 23 -4 26 -10z"/>
<path d="M3116 2978 c6 -10 84 -6 84 5 0 4 -20 7 -44 6 -25 -2 -43 -6 -40 -11z"/>
<path d="M2855 2930 c-4 -6 3 -10 14 -10 25 0 27 6 6 13 -8 4 -17 2 -20 -3z"/>
<path d="M2267 2753 c-4 -3 -7 -11 -7 -17 0 -6 5 -5 12 2 6 6 9 14 7 17 -3 3
-9 2 -12 -2z"/>
<path d="M2555 2720 c3 -5 8 -10 11 -10 2 0 4 5 4 10 0 6 -5 10 -11 10 -5 0
-7 -4 -4 -10z"/>
<path d="M2575 2700 c-7 -11 19 -20 34 -10 9 5 7 9 -8 13 -12 3 -23 2 -26 -3z"/>
<path d="M2578 2663 c7 -3 16 -2 19 1 4 3 -2 6 -13 5 -11 0 -14 -3 -6 -6z"/>
<path d="M2515 2649 c-4 -6 -5 -12 -2 -15 2 -3 7 2 10 11 7 17 1 20 -8 4z"/>
<path d="M5068 993 c7 -3 16 -2 19 1 4 3 -2 6 -13 5 -11 0 -14 -3 -6 -6z"/>
</g>
</svg>
